<?xml version="1.0" encoding="UTF-8"?>
<svg id="Ebene_1" xmlns="http://www.w3.org/2000/svg" version="1.1" viewBox="0 0 283.4646 106.78939">
  <!-- Generator: Adobe Illustrator 29.8.2, SVG Export Plug-In . SVG Version: 2.1.1 Build 3)  -->
  <defs>
    <style>
      .st0 {
        fill: #81694c;
      }

      .st1 {
        fill: #f1af00;
      }
    </style>
  </defs>
  <path class="st1" d="M207.30199,55.638v-10.389h-25.77899c.077-4.54,1.76999-6.695,11.543-11.081,11.46599-5.002,14.00499-10.69701,14.00499-17.7v-.461c0-8.696-7.07899-16.007-18.69899-16.007-12.082,0-19.08501,6.92599-19.778,18.007h12.159c.15399-5.156,2.924-8.003,7.619-8.003,4.23199,0,6.464,2.847,6.464,6.464v.154c0,4.31001-1.84702,6.464-9.85001,9.773-13.467,5.541-16.93001,12.159-16.93001,21.932v7.311h39.246ZM161.08699,40.603V1.00099h-8.661c-3.92401,5.00201-8.849,8.08-14.621,9.23401v11.08099c4.07899-.84599,7.73599-2.38499,10.968-4.694v23.981h12.314Z"/>
  <path class="st0" d="M220.03901,81.5484c.847-5.155,3.53999-7.464,8.465-7.464s7.388,2.924,7.696,7.464h-16.161ZM228.65801,106.78939c10.62,0,17.77699-5.386,19.70099-13.774h-12.082c-.847,2.539-3.30899,4.694-7.696,4.694-5.30899,0-8.157-2.924-8.69499-9.004h28.703c.847-14.005-6.07901-23.702-19.931-23.702-12.774,0-21.00801,8.234-21.00801,20.47v.77c0,12.466,8.00301,20.546,21.00801,20.546M192.737,105.78939l14.314-39.785h-12.39l-8.465,27.395-8.388-27.395h-13.005l14.39,39.785h13.54401ZM148.773,105.78939h12.313v-56.946h-12.313v56.946ZM114.383,81.5484c.847-5.155,3.54-7.464,8.465-7.464s7.38799,2.924,7.695,7.464h-16.16ZM123.002,106.78939c10.62,0,17.776-5.386,19.7-13.774h-12.082c-.84601,2.539-3.309,4.694-7.695,4.694-5.31,0-8.157-2.924-8.696-9.004h28.704c.84599-14.005-6.07901-23.702-19.931-23.702-12.774,0-21.009,8.234-21.009,20.47v.77c0,12.466,8.004,20.546,21.009,20.546M62.64,105.78939l6.69501-26.395,6.772,26.395h12.928l11.697-39.785h-12.081l-6.695,27.088-6.465-27.088h-12.081l-6.388,26.934-6.541-26.934h-12.389l11.62,39.785h12.92799ZM28.088,105.78939v-44.095h15.006v-10.542H0v10.542h15.083v44.095h13.005Z"/>
  <path class="st1" d="M276.2266,55.6354v-6.095c0-1.947,1.08002-3.132,2.689-3.132,1.58801,0,2.245.995,2.245,2.772v6.455h2.30402v-7.026c0-2.476-1.121-4.124-3.76501-4.124-1.758,0-2.901.909-3.47299,1.987l-.08398-1.733h-2.241v10.896h2.32498ZM263.77561,49.0354c.254-1.779,1.24899-2.711,2.94199-2.711,1.715,0,2.60501,1.016,2.77402,2.711h-5.716ZM266.7396,55.9104c2.73102,0,4.54901-1.395,5.077-3.681h-2.32498c-.31802,1.101-1.228,1.821-2.75201,1.821-1.84201,0-2.901-1.164-3.00699-3.346h8.14801c.16898-3.724-1.565-6.219-5.14102-6.219-3.345,0-5.396,2.241-5.396,5.543v.317c0,3.303,2.009,5.565,5.396,5.565M252.1216,55.6354v-6.095c0-1.947,1.07899-3.132,2.689-3.132,1.588,0,2.244.995,2.244,2.772v6.455h2.30399v-7.026c0-2.476-1.12-4.124-3.76498-4.124-1.73599,0-2.858.845-3.451,1.923v-6.431h-2.347v15.658h2.326ZM242.99961,55.9104c2.73099,0,4.528-1.606,4.88699-4.167h-2.304c-.233,1.376-1.058,2.286-2.60399,2.286-1.884,0-2.858-1.333-2.858-3.683v-.318c0-2.35.974-3.662,2.858-3.662,1.54599,0,2.34999.868,2.58299,2.244h2.283c-.29601-2.519-2.093-4.125-4.82401-4.125-3.323,0-5.26801,2.241-5.26801,5.543v.318c0,3.302,1.94501,5.564,5.24701,5.564M230.4986,54.0724c-1.228,0-1.927-.572-1.927-1.482,0-.847.466-1.313,1.461-1.461l3.494-.487v.995c0,1.419-1.397,2.435-3.028,2.435M229.96961,55.9104c1.567,0,2.901-.74,3.57799-1.965l.08501,1.69h2.13499v-7.407c0-2.264-1.586-3.743-4.401-3.743-2.66699,0-4.44299,1.289-4.63399,3.532h2.22099c.105-1.101,1.01601-1.715,2.371-1.715,1.37599,0,2.202.635,2.202,1.842v.783l-4.298.634c-1.86099.254-2.918,1.397-2.918,3.132,0,1.865,1.416,3.217,3.65901,3.217M224.9386,55.6354v-2.05h-6.285v-12.973h-2.474v15.023h8.759Z"/>
</svg>